<svg height="73" viewBox="0 0 73 73" width="73" xmlns="http://www.w3.org/2000/svg"><g fill="none"><rect fill="#117cad" height="71" rx="14" stroke="#054665" stroke-width="2" width="71" x="1" y="1"/><g transform="translate(18 18)"><path d="m27.9920398 23.0218905c-1.1412935 0-2.1721393.6258707-3.0189055 1.1412936-1.6199005.9940298-2.3930348.920398-2.3930348.920398s0 0-.0368159-.0368159c-.1104478-.1840796.5154229-1.7671642-.1840796-3.6815921-.7731343-2.0985074-1.9512438-2.6139303-1.840796-2.761194.4049751-.6995025 1.4358209-1.8039801 1.840796-3.8288557.2577114-1.2517413.1840796-3.2766169-.3681592-4.3442786-.1104478-.1840796-.9940299.3313433-.9940299.3313433s-.8467661-1.87761199-1.1044776-2.06169159c-.7731343-.47860696-1.5830846 2.02487559-1.5830846 2.02487559s-1.8039801-.2577114-3.1661691 1.2149254c-.2577115.2945274-.6626866.478607-1.0308458.6258707-.1104478.0368159-.2577114.0368159-.5890547.920398-.5154229 1.362189.8467662 2.9084577.8467662 2.9084577s-1.6199005 1.1412935-2.2457712 2.6139303c-.6626866 1.5830846-.478607 3.1293533-.478607 3.1293533s-1.1781094.9940298-1.2517412 2.0616915c-.0736319.920398.1840796 1.6567164.4786069 2.0985075.3313433.4786069.6995025.2577114.6995025.2577114s-.7363184.8099503 0 1.1781095c.6626866.3313432 1.7671642.5522388 2.3562189-.036816.4417911-.441791.5154229-1.3990049.6626866-1.7671641.0368159-.0736319.1840796.1472636.2945273.2577114.1472637.1104478.3681592.2577114.3681592.2577114s-1.0308457.4417911-.6258706 1.4726369c.1472637.3313432.6626866.5522388 1.4726368.5522388.2945274 0 3.6815921-.1840796 4.5651741-.4049752.5154229-.1104477.6995025-.4049751.6995025-.4049751s2.1721393-.5890547 4.1233831-1.8776119c1.2517413-.8099503 1.7671642-1.0308458 2.79801-1.2885572.8835821-.1840796.8099502-1.4726369-.2945274-1.4726369z" fill="#117cad"/><path d="m18.5671642 0c-10.2325705 0-18.5671642 8.3345937-18.5671642 18.5671642s8.3345937 18.5671642 18.5671642 18.5671642 18.5671642-8.3345937 18.5671642-18.5671642-8.3345937-18.5671642-18.5671642-18.5671642zm11.1815589 26.2828524c-.9902488.2475622-1.4853732.4126037-2.8057049 1.3203317-1.8979767 1.2378109-3.9197346 1.9392371-4.6624212 2.145539-.2475622.2063018-.5776451.4126036-1.0727695.5363847-1.1552902.2888225-5.0337645.4951244-5.3638474.4951244h-.0825207c-1.1965506 0-1.8979768-.3713433-2.2280597-.7426866-1.0315092.4951244-2.3518408.2888226-3.3008292-.2063018-.4951244-.2475622-.78394695-.6601659-.90772805-1.1552902-.04126036-.2063019-.04126036-.4126037 0-.6189055-.08252073-.0825207-.16504145-.2063018-.24756218-.2888226-.24756219-.3713432-.8252073-1.4441127-.70142621-3.0120066.08252073-1.1140298.86646766-2.1042786 1.36159204-2.6406633-.04126036-.7426866.04126037-2.1042787.6189055-3.5071311.453864-1.1140298 1.361592-2.1042786 2.0630182-2.6819237-.4951244-.8252073-.9902487-2.1042786-.4951244-3.4246103.3713433-.9489883.6189055-1.4441127 1.2790713-1.6504145.2888226-.1237811.6189055-.2475622.7426866-.4126037 1.1965506-1.32033167 2.6406634-1.65041459 3.5483914-1.69167495.0412604-.1237811.1237811-.28882256.2063018-.45386402.4951244-1.03150912.9902488-1.60915423 1.5678939-1.81545605.453864-.16504146.907728-.12378109 1.3203317.16504146.2063018.12378109.453864.28882255 1.1552902 1.77419569.4951244-.1237811.7426865-.08252073.8664676-.04126037.330083.08252073.5776451.28882256.7014262.57764511.7426866 1.40285243.8252073 3.96099503.5363848 5.57014923-.3713433 1.8979768-1.1552902 3.1357878-1.7329353 4.0022554.4951243.4951244 1.1965505 1.4028524 1.7329353 2.8057048.4126036 1.1965506.4951244 2.2693201.4126036 3.1357878.2475622-.1237811.5776451-.2888226.9489884-.4951244.907728-.5776451 2.3105804-1.4028524 3.960995-1.4441128 1.1140299 0 1.9804976.7014262 2.1042787 1.691675.0412603.9489884-.5776452 1.8567164-1.5266335 2.0630182z" fill="#fff"/></g></g></svg>